<svg xmlns="http://www.w3.org/2000/svg" viewBox="0 0 900 650" role="img" aria-labelledby="title">
  <title>Folha estilizada</title>
  <rect width="900" height="650" fill="#e5eadb"/>
  <circle cx="708" cy="130" r="165" fill="#cad9b7"/>
  <path d="M-50 592C130 467 180 274 421 181c67-26 145-34 228-20-19 145-90 266-205 349C291 621 166 651-50 647Z" fill="#7eaa75"/>
  <path d="M87 610C253 484 349 376 634 176" fill="none" stroke="#315d50" stroke-linecap="round" stroke-width="13"/>
  <path d="m266 458-94-15M339 386l-102-18M426 318l-89-20M510 255l-72-22" fill="none" stroke="#315d50" stroke-linecap="round" stroke-width="8"/>
  <path d="m277 456 20 91M359 386l21 83M450 318l15 74M535 253l7 57" fill="none" stroke="#315d50" stroke-linecap="round" stroke-width="8"/>
  <circle cx="164" cy="126" r="42" fill="#e88358"/>
</svg>